<?xml version="1.0" standalone="no"?><!DOCTYPE svg PUBLIC "-//W3C//DTD SVG 1.1//EN" "http://www.w3.org/Graphics/SVG/1.1/DTD/svg11.dtd"><svg class="icon" width="200px" height="200.00px" viewBox="0 0 1024 1024" version="1.1" xmlns="http://www.w3.org/2000/svg"><path d="M128 277.333333c0-59.648 0-89.472 9.728-112.981333a128 128 0 0 1 69.290667-69.290667C230.528 85.333333 260.352 85.333333 320 85.333333h426.666667c59.648 0 89.472 0 112.981333 9.728a128 128 0 0 1 69.290667 69.290667C938.666667 187.861333 938.666667 217.685333 938.666667 277.333333v469.333334c0 59.648 0 89.472-9.728 112.981333a128 128 0 0 1-69.290667 69.290667C836.138667 938.666667 806.314667 938.666667 746.666667 938.666667h-426.666667c-59.648 0-89.472 0-112.981333-9.728a128 128 0 0 1-69.290667-69.290667C128 836.138667 128 806.314667 128 746.666667v-469.333334z" fill="#37455B" /><path d="M170.666667 256a64 64 0 1 1 128 0 64 64 0 0 1-128 0zM170.666667 512a64 64 0 1 1 128 0 64 64 0 0 1-128 0zM170.666667 768a64 64 0 1 1 128 0 64 64 0 0 1-128 0z" fill="#1B2329" /><path d="M42.666667 256a42.666667 42.666667 0 0 1 42.666666-42.666667h128a42.666667 42.666667 0 0 1 0 85.333334H85.333333a42.666667 42.666667 0 0 1-42.666666-42.666667zM42.666667 512a42.666667 42.666667 0 0 1 42.666666-42.666667h128a42.666667 42.666667 0 1 1 0 85.333334H85.333333a42.666667 42.666667 0 0 1-42.666666-42.666667zM42.666667 768a42.666667 42.666667 0 0 1 42.666666-42.666667h128a42.666667 42.666667 0 1 1 0 85.333334H85.333333a42.666667 42.666667 0 0 1-42.666666-42.666667z" fill="#E8CB26" /><path d="M384 213.333333m42.666667 0l213.333333 0q42.666667 0 42.666667 42.666667l0 0q0 42.666667-42.666667 42.666667l-213.333333 0q-42.666667 0-42.666667-42.666667l0 0q0-42.666667 42.666667-42.666667Z" fill="#FFFFFF" /><path d="M825.6 251.008c18.816-32.597333 58.88-44.672 89.514667-27.008 30.592 17.664 40.149333 58.453333 21.333333 91.008l-243.242667 421.333333c-9.386667 16.213333-14.08 24.32-19.626666 31.658667a143.274667 143.274667 0 0 1-25.685334 26.026667c-7.168 5.674667-15.104 10.325333-30.976 19.712l-16.128 9.557333c-14.08 8.32-21.12 12.458667-26.837333 12.586667a20.224 20.224 0 0 1-18.176-10.496c-2.773333-5.034667-2.688-13.226667-2.56-29.525334l0.256-18.773333c0.170667-18.389333 0.256-27.605333 1.536-36.693333 1.706667-12.032 4.992-23.893333 9.728-35.2 3.541333-8.533333 8.234667-16.64 17.621333-32.853334l243.242667-421.333333z" fill="#2697E8" /><path d="M795.648 302.848l110.848 64-42.666667 73.898667-110.848-64z" fill="#26E881" /><path d="M780.032 244.565333m18.475209 10.666667l0 0q18.475209 10.666667 7.808542 29.141875l-106.666667 184.752086q-10.666667 18.475209-29.141875 7.808542l0 0q-18.475209-10.666667-7.808542-29.141875l106.666666-184.752086q10.666667-18.475209 29.141876-7.808542Z" fill="#26E881" /><path d="M636.501333 794.410667c2.005333 6.4-1.664 12.714667-7.466666 16.085333l-15.104 8.448-15.658667 8.704c-13.653333 7.552-20.48 11.349333-26.069333 11.306667a21.333333 21.333333 0 0 1-18.218667-10.538667c-2.858667-4.821333-2.986667-12.629333-3.242667-28.245333l-0.298666-17.877334c-0.128-6.954667-0.213333-12.544-0.213334-17.28 0-6.741333 3.626667-13.056 10.197334-14.506666 9.386667-2.133333 25.130667-2.389333 45.354666 9.258666 20.181333 11.690667 27.818667 25.429333 30.72 34.645334z" fill="#FFFFFF" /></svg>